<svg xmlns="http://www.w3.org/2000/svg" version="1.1" xmlns:xlink="http://www.w3.org/1999/xlink" xmlns:svgjs="http://svgjs.dev/svgjs" width="100%" height="100%" viewBox="0 0 1000 600"><rect width="1000" height="600" x="0" y="0" fill="#001a33"/><g><circle r="166.66666666666666" cx="367.88634745279944" cy="390.10859574453025" fill="#2f4f4f" transform="matrix(0.6212115601357346,0,0,0.6212115601357345,0,57.66003693447067)"/><path d="M321.269111899111 447.80403185528155Q321.269111899111 444.4347597104675 324.0184379692792 439.7986412392035Q326.76776403944746 435.16252276793944 327.71116023999537 434.11130985875747L327.71116023999537 434.11130985875747Q329.5979526410912 431.84715897744246 331.53865339650406 431.84715897744246Q333.47935415191694 431.84715897744246 335.6626425017564 433.087051126734Q337.8459308515958 434.29998909886706 341.484744767995 436.1598273228044Q345.1505128615526 437.9927113695832 349.30145614396343 439.6099619990939L349.30145614396343 439.6099619990939Q358.60064726365005 443.1140050297005 365.5548249705461 443.1140050297005Q372.5359568546007 443.1140050297005 376.87557937712114 441.90106705756745Q381.2421560768001 440.6611749082759 384.36884062718747 438.18139060969276L384.36884062718747 438.18139060969276Q390.8108889680718 432.97923441809996 390.8108889680718 423.5991807669378L390.8108889680718 423.5991807669378Q390.8108889680718 411.7662969943511 372.9133153348199 403.4105020752124L372.9133153348199 403.4105020752124Q367.7920216747026 401.0385344852633 361.4038816881353 398.6396127181558Q354.9887875244095 396.2137367738897 347.92679310887934 392.1436560229544Q340.8647986933492 388.07357527201907 335.2852840215372 382.5749231316826L335.2852840215372 382.5749231316826Q322.85940835146323 370.2568641702427 322.85940835146323 353.5722285091238L322.85940835146323 353.5722285091238Q322.85940835146323 335.86333411598144 337.36075566274263 325.13557160689373L337.36075566274263 325.13557160689373Q350.9187067734741 315.1086177039272 369.3014555955793 315.1086177039272L369.3014555955793 315.1086177039272Q389.7866302360484 315.1086177039272 402.9402686894022 324.0034961662362L402.9402686894022 324.0034961662362Q410.1370339907249 328.7474313461343 410.1370339907249 332.8175120970696L410.1370339907249 332.8175120970696Q410.1370339907249 335.00080044690907 407.57638716066623 339.82559815828273Q405.04269450776616 344.67735004681487 403.47935223257247 346.3754632078011Q401.9160099573788 348.07357636878737 400.56830109945315 348.07357636878737L400.56830109945315 348.07357636878737Q398.1963335095041 348.07357636878737 394.3688403529954 345.5129295387287Q390.5413471964867 342.9522827086701 383.42544442663956 339.93341486691673Q376.3095416567924 336.8875928480049 369.9753100245421 336.8875928480049Q363.61412421513324 336.8875928480049 359.78663105862455 337.9388057571869Q355.9321837249574 338.9900186663688 353.1019951233136 341.0654903075743L353.1019951233136 341.0654903075743Q347.225984502758 345.5129295387287 347.225984502758 354.057403697977L347.225984502758 354.057403697977Q347.225984502758 366.375462659417 364.0992994039865 373.57222796073967L364.0992994039865 373.57222796073967L373.29067381503904 377.3458127629313Q391.75428516861973 384.4617155327785 401.32301805989147 393.0870522235023L401.32301805989147 393.0870522235023Q414.50361069040383 405.0277527047231 414.50361069040383 422.35928861764626L414.50361069040383 422.35928861764626Q414.50361069040383 441.71238781745785 399.92140084764884 453.84176753878825L399.92140084764884 453.84176753878825Q386.4443122683929 465.1086135910462 368.3580593950314 465.1086135910462L368.3580593950314 465.1086135910462Q345.1505128615526 465.1086135910462 328.84323568065287 455.53988069977447L328.84323568065287 455.53988069977447Q321.269111899111 451.1733040000955 321.269111899111 447.80403185528155Z " fill="#00cca3" transform="matrix(0.6212115601357346,0,0,0.6212115601357345,0,57.66003693447067)"/><path d="M617.8863606562602 448.6489401690032Q617.8863606562602 445.45907960599067 620.4892868756783 441.06983147128557Q623.0922130950964 436.68058333658036 623.98537405274 435.6853468409205L623.98537405274 435.6853468409205Q625.771695968027 433.5417605425761 627.6090556523221 433.5417605425761Q629.4464153366173 433.5417605425761 631.5134449814493 434.7156292297647Q633.5804746262816 435.8639790324492 637.0255240343349 437.6247820632321Q640.4960923268925 439.3600662095109 644.4260005405238 440.89119927975685L644.4260005405238 440.89119927975685Q653.2300156944382 444.2086542652898 659.813887896496 444.2086542652898Q666.4232789830578 444.2086542652898 670.5318193882179 443.0603044626053Q674.6658786778821 441.8864357754167 677.6260692803576 439.53869840103954L677.6260692803576 439.53869840103954Q683.7250826768375 434.61355369174834 683.7250826768375 425.73298188432165L683.7250826768375 425.73298188432165Q683.7250826768375 414.5301915870218 666.7805433661152 406.6193373907509L666.7805433661152 406.6193373907509Q661.9319553103362 404.3736755543901 655.8839796828647 402.10249483352527Q649.8104851708889 399.8057952281563 643.1245374308148 395.95244366803723Q636.4385896907406 392.0990921079181 631.156180598392 386.8932396690818L631.156180598392 386.8932396690818Q619.391974842002 375.23110945070823 619.391974842002 359.4349199426705L619.391974842002 359.4349199426705Q619.391974842002 342.669012823477 633.1211347052076 332.5124967908453L633.1211347052076 332.5124967908453Q645.9571336107699 323.0194717553202 663.3610128425659 323.0194717553202L663.3610128425659 323.0194717553202Q682.7553650656816 323.0194717553202 695.2085807036824 331.4407036416731L695.2085807036824 331.4407036416731Q702.022122866277 335.93202731439465 702.022122866277 339.7853788745137L702.022122866277 339.7853788745137Q702.022122866277 341.85240851934583 699.5978288383874 346.42028884557965Q697.199053695002 351.0136880563176 695.7189583937643 352.6213777800759Q694.2388630925266 354.2290675038342 692.9629188673216 354.2290675038342L692.9629188673216 354.2290675038342Q690.7172570309608 354.2290675038342 687.0935754313787 351.80477347594467Q683.4698938317965 349.3804794480552 676.7329083227141 346.522364383596Q669.9959228136318 343.6387304346328 663.9989849551683 343.6387304346328Q657.9765282122007 343.6387304346328 654.3528466126186 344.6339669302927Q650.7036461285325 345.62920342595254 648.0241632556019 347.59415753276824L648.0241632556019 347.59415753276824Q642.4610464337081 351.80477347594467 642.4610464337081 359.8942598637443L642.4610464337081 359.8942598637443Q642.4610464337081 371.5563900821179 658.4358681332747 378.3699322447125L658.4358681332747 378.3699322447125L667.1378077491727 381.94257607528647Q684.6182436344809 388.6795615843688 693.6774476334363 396.84560462568066L693.6774476334363 396.84560462568066Q706.1561821559411 408.1504704609969 706.1561821559411 424.559113197133L706.1561821559411 424.559113197133Q706.1561821559411 442.88167227107664 692.3504656392231 454.3651702979215L692.3504656392231 454.3651702979215Q679.5910233871732 465.0320640206352 662.4678518849223 465.0320640206352L662.4678518849223 465.0320640206352Q640.4960923268925 465.0320640206352 625.0571672019121 455.97286002167976L625.0571672019121 455.97286002167976Q617.8863606562602 451.8388007320156 617.8863606562602 448.6489401690032ZM783.5039210878674 445.025258569421L783.5039210878674 445.025258569421Q816.0660177150987 445.025258569421 816.0660177150987 407.97183826946815L816.0660177150987 407.97183826946815L816.0660177150987 331.0068826051034Q816.0660177150987 328.6591452307262 817.5461130163364 326.9493799689516Q819.0262083175742 325.265133591681 821.0932379624062 325.265133591681L821.0932379624062 325.265133591681L833.3678214088782 325.265133591681Q835.4348510537104 325.265133591681 836.86390858594 326.9493799689516Q838.3184850026737 328.6591452307262 838.3184850026737 331.0068826051034L838.3184850026737 331.0068826051034L838.3184850026737 407.7932060779395Q838.3184850026737 435.4301579958795 822.1650311115784 450.9456397743721L822.1650311115784 450.9456397743721Q807.3640780992007 465.1086206741475 783.5804777413796 465.1086206741475L783.5804777413796 465.1086206741475Q759.7203207300465 465.1086206741475 744.7407355261398 450.4097431997861L744.7407355261398 450.4097431997861Q729.0466215561185 435.0728936128221 729.0466215561185 407.7932060779395L729.0466215561185 407.7932060779395L729.0466215561185 331.0068826051034Q729.0466215561185 328.6591452307262 730.5267168573564 326.9493799689516Q732.0068121585941 325.265133591681 734.0483229189222 325.265133591681L734.0483229189222 325.265133591681L746.3484252498981 325.265133591681Q748.4154548947304 325.265133591681 749.8445124269599 326.9493799689516Q751.2735699591894 328.6591452307262 751.2735699591894 331.0068826051034L751.2735699591894 331.0068826051034L751.2735699591894 407.97183826946815Q751.2735699591894 426.5495861884528 760.358292842649 436.0426112239779L760.358292842649 436.0426112239779Q768.6774491909855 445.025258569421 783.5039210878674 445.025258569421ZM873.4835078493229 457.044653170852L873.4835078493229 331.0068826051034Q873.4835078493229 328.6591452307262 874.9636031505609 326.9493799689516Q876.4436984517986 325.265133591681 878.5107280966306 325.265133591681L878.5107280966306 325.265133591681L951.3416244713312 325.265133591681Q953.6893618457086 325.265133591681 954.8887494174012 326.74522889291876Q956.113655873598 328.22532419415654 956.113655873598 330.3689104925009L956.113655873598 330.3689104925009L956.113655873598 340.14264325757114Q956.113655873598 342.20967290240316 954.8887494174012 343.689768203641Q953.6893618457086 345.1698635048787 951.3416244713312 345.1698635048787L951.3416244713312 345.1698635048787L895.991163981939 345.1698635048787L895.991163981939 389.75135473354095L940.5726552106012 389.75135473354095Q942.9203925849783 389.75135473354095 944.1197801566711 391.282487803787Q945.3446866128679 392.81362087403295 945.3446866128679 394.880650518865L945.3446866128679 394.880650518865L945.3446866128679 404.5523077459188Q945.3446866128679 406.6193373907509 944.1197801566711 408.0994326919887Q942.9203925849783 409.57952799322646 940.5726552106012 409.57952799322646L940.5726552106012 409.57952799322646L895.9146073284267 409.57952799322646L895.9146073284267 457.044653170852Q895.9146073284267 459.36687166072505 894.4345120271889 461.07663692249974Q892.9544167259512 462.78640218427444 890.887387081119 462.78640218427444L890.887387081119 462.78640218427444L878.4086525586142 462.78640218427444Q876.3416229137822 462.78640218427444 874.9125653815527 461.07663692249974Q873.4835078493229 459.36687166072505 873.4835078493229 457.044653170852L873.4835078493229 457.044653170852ZM980.2290017299722 457.044653170852L980.2290017299722 331.0068826051034Q980.2290017299722 328.6591452307262 981.7090970312099 326.9493799689516Q983.1891923324479 325.265133591681 985.2562219772799 325.265133591681L985.2562219772799 325.265133591681L1058.1126372364845 325.265133591681Q1060.4348557263577 325.265133591681 1061.6597621825545 326.74522889291876Q1062.859149754247 328.22532419415654 1062.859149754247 330.3689104925009L1062.859149754247 330.3689104925009L1062.859149754247 340.14264325757114Q1062.859149754247 342.20967290240316 1061.6597621825545 343.689768203641Q1060.4348557263577 345.1698635048787 1058.1126372364845 345.1698635048787L1058.1126372364845 345.1698635048787L1002.7621767470923 345.1698635048787L1002.7621767470923 389.75135473354095L1047.3436679757544 389.75135473354095Q1049.6658864656274 389.75135473354095 1050.8907929218244 391.282487803787Q1052.090180493517 392.81362087403295 1052.090180493517 394.880650518865L1052.090180493517 394.880650518865L1052.090180493517 404.5523077459188Q1052.090180493517 406.6193373907509 1050.8907929218244 408.0994326919887Q1049.6658864656274 409.57952799322646 1047.3436679757544 409.57952799322646L1047.3436679757544 409.57952799322646L1002.660101209076 409.57952799322646L1002.660101209076 457.044653170852Q1002.660101209076 459.36687166072505 1001.180005907838 461.07663692249974Q999.6999106066003 462.78640218427444 997.6328809617683 462.78640218427444L997.6328809617683 462.78640218427444L985.1796653237675 462.78640218427444Q983.1126356789355 462.78640218427444 981.6835781467059 461.07663692249974Q980.2290017299722 459.36687166072505 980.2290017299722 457.044653170852L980.2290017299722 457.044653170852ZM1085.2136925798386 457.044653170852L1085.2136925798386 331.0068826051034Q1085.2136925798386 328.6591452307262 1086.6937878810763 326.9493799689516Q1088.173883182314 325.265133591681 1090.215393942642 325.265133591681L1090.215393942642 325.265133591681L1102.7962040031632 325.265133591681Q1104.8632336479952 325.265133591681 1106.2922911802248 326.9493799689516Q1107.7213487124543 328.6591452307262 1107.7213487124543 331.0068826051034L1107.7213487124543 331.0068826051034L1107.7213487124543 457.044653170852Q1107.7213487124543 459.36687166072505 1106.2412534112166 461.07663692249974Q1104.7611581099789 462.78640218427444 1102.6941284651468 462.78640218427444L1102.6941284651468 462.78640218427444L1090.1388372891297 462.78640218427444Q1088.0718076442977 462.78640218427444 1086.6427501120681 461.07663692249974Q1085.2136925798386 459.36687166072505 1085.2136925798386 457.044653170852L1085.2136925798386 457.044653170852ZM1138.6757556159273 462.78640218427444Q1136.7108015091117 462.78640218427444 1135.6134894754355 461.5359768435735Q1134.5416963262633 460.28555150287264 1134.5416963262633 458.3971540495692Q1134.5416963262633 456.50875659626587 1135.7155650134519 454.7224346809789L1135.7155650134519 454.7224346809789L1174.3766750371628 392.71154533601657L1134.1078752896935 333.32910109497647Q1132.8319310644886 331.5427791796895 1132.8319310644886 329.7054194953943Q1132.8319310644886 327.84254092659506 1133.954761982669 326.56659670139004Q1135.0775929008494 325.265133591681 1137.0680658921692 325.265133591681L1137.0680658921692 325.265133591681L1150.7972257553747 325.265133591681Q1154.0126052028913 325.265133591681 1155.4161438506167 326.69419112391057Q1156.7941636138382 328.1232486561401 1157.6873245714817 329.55230618836976L1157.6873245714817 329.55230618836976L1187.0340417511964 376.3794592533927L1214.7475503226485 329.55230618836976Q1216.9166555054971 325.265133591681 1221.4845358317311 325.265133591681L1221.4845358317311 325.265133591681L1234.8564313118793 325.265133591681Q1236.821385418695 325.265133591681 1237.9442163368753 326.51555893238185Q1239.0670472550557 327.7659842730828 1239.0670472550557 329.60334395737794Q1239.0670472550557 331.4407036416731 1237.9952541058835 333.1504689034478L1237.9952541058835 333.1504689034478L1200.227305039816 392.17564876143047L1242.9203988151748 454.7224346809789Q1244.0942675023632 456.50875659626587 1244.0942675023632 458.34611628056103Q1244.0942675023632 460.1834759648562 1243.0224743531912 461.4849390745653Q1241.9251623195148 462.78640218427444 1239.9602082126992 462.78640218427444L1239.9602082126992 462.78640218427444L1226.052416157965 462.78640218427444Q1223.0156689019768 462.78640218427444 1221.6121302542515 461.3573446520448Q1220.2341104910302 459.90276823531116 1219.3154306488825 458.47371070308157L1219.3154306488825 458.47371070308157L1187.5699383257825 409.5029713397142L1157.9680323010268 458.47371070308157Q1157.0748713433832 459.90276823531116 1155.6713326956578 461.3573446520448Q1154.2933129324365 462.78640218427444 1151.0524146004157 462.78640218427444L1151.0524146004157 462.78640218427444L1138.6757556159273 462.78640218427444ZM1276.8349963211233 344.2767025472353L1276.8349963211233 344.2767025472353Q1270.7359829246436 344.2767025472353 1266.4232914434506 340.0660866040588L1266.4232914434506 340.0660866040588Q1262.1105999622578 335.93202731439465 1262.1105999622578 329.65438172638613L1262.1105999622578 329.65438172638613Q1262.1105999622578 323.5553683299063 1266.4232914434506 319.2426768487134L1266.4232914434506 319.2426768487134Q1270.5573507331148 315.10861755904926 1276.8349963211233 315.10861755904926L1276.8349963211233 315.10861755904926Q1286.4300968946648 315.10861755904926 1290.283448454784 323.91263271296367L1290.283448454784 323.91263271296367Q1291.4573171419725 326.51555893238185 1291.4573171419725 329.65438172638613L1291.4573171419725 329.65438172638613Q1291.4573171419725 335.93202731439465 1287.1446256607794 340.0660866040588L1287.1446256607794 340.0660866040588Q1282.857453064091 344.2767025472353 1276.8349963211233 344.2767025472353ZM1287.3232578523082 367.49888744596603L1287.3232578523082 438.10964086881Q1287.3232578523082 444.4893619948349 1291.559392679989 444.4893619948349L1291.559392679989 444.4893619948349Q1292.9884502122186 444.4893619948349 1294.7747721275055 443.6727576907037L1294.7747721275055 443.6727576907037Q1298.270859304567 442.1416246204577 1299.521284645268 442.1416246204577L1299.521284645268 442.1416246204577Q1301.4096820985715 442.1416246204577 1302.5835507857598 444.7445508398759L1302.5835507857598 444.7445508398759L1305.3651091967067 451.02219642788447Q1306.0796379628216 452.5533294981304 1306.0796379628216 453.90583037684775L1306.0796379628216 453.90583037684775Q1306.0796379628216 457.75918193696674 1299.4447279917556 461.07663692249974L1299.4447279917556 461.07663692249974Q1293.1670824037471 464.31753525452035 1287.017031238259 464.31753525452035Q1280.8669800727712 464.31753525452035 1277.1922607041809 462.9650343758031Q1273.5175413355903 461.61253349708585 1270.9146151161722 458.47371070308157L1270.9146151161722 458.47371070308157Q1265.708762677336 452.01743292354433 1265.708762677336 437.4971876407116L1265.708762677336 437.4971876407116L1265.708762677336 367.49888744596603Q1265.708762677336 364.99803676456423 1267.1378202095655 363.28827150278954Q1268.5923966262992 361.5785062410149 1270.5573507331148 361.5785062410149L1270.5573507331148 361.5785062410149L1282.5767453345459 361.5785062410149Q1284.643774979378 361.5785062410149 1285.9962758580953 363.28827150278954Q1287.3232578523082 364.99803676456423 1287.3232578523082 367.49888744596603L1287.3232578523082 367.49888744596603ZM1408.537959246782 458.0398896665119L1408.537959246782 458.0398896665119Q1408.537959246782 462.78640218427444 1403.868003382532 462.78640218427444L1403.868003382532 462.78640218427444L1395.166063766634 462.78640218427444Q1391.6699765895721 462.78640218427444 1390.9554478234572 461.40838242105303Q1390.2409190573424 460.00484377332754 1390.1388435193262 458.88201285514714Q1390.0622868658136 457.75918193696674 1389.7815791362689 456.1514922132085L1389.7815791362689 456.1514922132085Q1389.2456825616825 451.76224407850333 1388.2504460660227 446.63294829317925L1388.2504460660227 446.63294829317925Q1381.2582717118994 459.46894719874143 1366.2786865079927 463.6030064884056L1366.2786865079927 463.6030064884056Q1360.9962774156443 465.0320640206352 1354.6165562896192 465.0320640206352Q1348.2368351635944 465.0320640206352 1341.8826329220735 462.9139966067949Q1335.5029117960487 460.82144807745874 1330.5777670867571 456.68738878779453L1330.5777670867571 456.68738878779453Q1319.45153344297 447.3474770592941 1319.45153344297 432.1892596638588L1319.45153344297 432.1892596638588Q1319.45153344297 415.601984736194 1331.6495602359296 406.7979695822796L1331.6495602359296 406.7979695822796Q1341.7040007305447 399.72923857464394 1357.5001902385825 399.72923857464394Q1373.2708608621163 399.72923857464394 1384.218462314375 408.9670747651281L1384.218462314375 408.9670747651281Q1384.49917004392 405.90480862463613 1384.49917004392 401.33692829840226Q1384.49917004392 396.7435290876643 1382.687329244129 392.17564876143047Q1380.901007328842 387.6077684351966 1377.583552343309 384.54550229470465L1377.583552343309 384.54550229470465Q1370.7700101807143 378.5485644362412 1358.571983387755 378.5485644362412L1358.571983387755 378.5485644362412Q1347.6243819354959 378.5485644362412 1336.3195161001797 384.54550229470465L1336.3195161001797 384.54550229470465Q1334.1504109173313 385.71937098189323 1332.5427211935732 385.71937098189323L1332.5427211935732 385.71937098189323Q1330.1184271656837 385.71937098189323 1327.8727653293229 380.97285846413064L1327.8727653293229 380.97285846413064Q1325.4484713014333 376.1242704083517 1325.4484713014333 373.98068411000736L1325.4484713014333 373.98068411000736Q1325.4484713014333 370.0252570118719 1331.3688525063844 366.35053764328154L1331.3688525063844 366.35053764328154Q1342.6737183417006 359.3328444046541 1361.6087306437428 359.3328444046541L1361.6087306437428 359.3328444046541Q1378.83397768401 359.3328444046541 1390.1388435193262 368.774831671171L1390.1388435193262 368.774831671171Q1403.5107389994744 380.0796975064872 1403.5107389994744 400.6989561857998L1403.5107389994744 400.6989561857998Q1403.5107389994744 409.8602357227716 1400.550548396999 423.7680277775059L1400.550548396999 423.7680277775059Q1408.1806948637247 445.45907960599067 1408.537959246782 458.0398896665119ZM1348.4154673551232 419.940195101891Q1344.7407479865326 422.69623462833374 1343.1840960317825 425.3757175012642Q1341.6019251925284 428.05520037419467 1341.6019251925284 431.70440085828096Q1341.6019251925284 435.3280824578631 1342.9033883022375 438.1606786378182Q1344.2048514119467 440.9932748177732 1346.552588786324 442.88167227107664L1346.552588786324 442.88167227107664Q1351.477733495615 446.7350238311957 1357.627784661103 446.7350238311957Q1363.7778358265912 446.7350238311957 1367.7077440402225 445.280447414462Q1371.663171138358 443.8513898822324 1374.5468050873212 441.6057280458716L1374.5468050873212 441.6057280458716Q1380.7223751373133 436.7571399900927 1380.7223751373133 431.3981742442317L1380.7223751373133 431.3981742442317Q1380.1864785627272 424.66118873514944 1373.2708608621163 420.80783717503033L1373.2708608621163 420.80783717503033Q1367.0952908121242 417.2096744599523 1358.6485400412669 417.2096744599523L1358.6485400412669 417.2096744599523Q1352.1157056082175 417.2096744599523 1348.4154673551232 419.940195101891Z " fill="#00cca3" transform="matrix(0.6212115601357346,0,0,0.6212115601357345,0,57.66003693447067)"/></g></svg>