<svg xmlns="http://www.w3.org/2000/svg" version="1.1" xmlns:xlink="http://www.w3.org/1999/xlink" xmlns:svgjs="http://svgjs.dev/svgjs" width="100%" height="100%" viewBox="0 0 1000 600"><rect width="1000" height="600" x="0" y="0" fill="#00264d"/><g><circle r="166.66666666666666" cx="372.71605936686194" cy="394.9382578931362" fill="#800000" transform="matrix(0.6066507873377857,0,0,0.6066507873377855,0,60.41040544515748)"/><path d="M325.95880314536385 458.21379412998743L325.95880314536385 458.21379412998743L333.0440886895638 439.37593177040816Q353.9063183474859 450.7067653986327 367.85195973607006 450.7067653986327Q381.8257173371311 450.7067653986327 389.10781636866994 445.2522201780978Q396.4180316126858 439.7976749575629 396.4180316126858 430.26627892786536L396.4180316126858 430.26627892786536Q396.4180316126858 419.75081546147334 387.0834490703271 413.4809000791059L387.0834490703271 413.4809000791059Q381.8257173371311 410.02260594443686 378.2830745650311 408.41998183324876Q374.7404317929311 406.7892415095837 367.34586791148433 403.6402257121615Q359.9794202425145 400.51932612721623 355.9306856458288 398.5793074663044Q351.88195104914314 396.66740501786944 346.3149409787003 392.9279487584306Q340.74793090825744 389.1884924989917 337.71137996074316 385.3365713896449L337.71137996074316 385.3365713896449Q329.81072425471064 375.8051753599473 329.81072425471064 362.253160946041L329.81072425471064 362.253160946041Q329.81072425471064 343.41529858646174 342.8566468440313 331.69083798355945Q355.9306856458288 319.9382611681801 375.7526154421025 319.9382611681801L375.7526154421025 319.9382611681801Q387.8988192321596 319.9382611681801 399.2296528603842 323.9869957648658Q410.58860270108573 328.0357303615515 416.66170459611425 332.0844649582372L416.66170459611425 332.0844649582372L408.56423540274284 349.71333018130616Q388.71418939399217 339.36656398977607 377.58016925310653 339.36656398977607Q366.44614911222084 339.36656398977607 359.75449054269865 344.73676057288Q353.0909481856534 350.10695715598393 353.0909481856534 358.822983023849L353.0909481856534 358.822983023849Q353.0909481856534 368.5230763284085 361.7788578410415 374.3993647360981L361.7788578410415 374.3993647360981Q369.0890730850573 379.26346949461634 378.5923529022779 383.3122040913021Q388.0956327194985 387.36093868798775 392.06001867875324 389.1884924989917Q395.996288425531 390.9879300975187 402.0693903205596 395.0366646942044Q408.1424922155881 399.0853992908901 411.3758566504413 403.1341338875758L411.3758566504413 403.1341338875758Q419.47332584381263 413.67771356644477 419.47332584381263 427.84828465484475L419.47332584381263 427.84828465484475Q419.47332584381263 448.2887711256121 405.0215926306429 459.11351292925093Q390.5417432049961 469.93825473288973 367.0647057867145 469.93825473288973Q343.5595521559559 469.93825473288973 325.95880314536385 458.21379412998743Z " fill="#ffffff" transform="matrix(0.6066507873377857,0,0,0.6066507873377855,0,60.41040544515748)"/><path d="M622.7160663181993 458.68420695371793L622.7160663181993 458.68420695371793L629.5170736508187 440.6021636487379Q649.5422619079757 451.4783777560617 662.928371578528 451.4783777560617Q676.3414693734162 451.4783777560617 683.3313935763861 446.24268163491826Q690.3483059036918 441.0069855137748 690.3483059036918 431.8580113639416L690.3483059036918 431.8580113639416Q690.3483059036918 421.7644528623557 681.3882486242092 415.7461011354743L681.3882486242092 415.7461011354743Q676.3414693734162 412.426561842172 672.9409657071064 410.8882387550319Q669.5404620407968 409.32292754355603 662.4425853404838 406.3002576179474Q655.3716967645065 403.3045758166746 651.4854068601526 401.442395237505Q647.5991169557986 399.60720278267127 642.2554683373121 396.01778224601105Q636.9118197188254 392.42836170935084 633.99710229056 388.7309886753474L633.99710229056 388.7309886753474Q626.4134393522027 379.5820145255143 626.4134393522027 366.573738595663L626.4134393522027 366.573738595663Q626.4134393522027 348.4916952906829 638.9359290440098 337.23764744265804Q651.4854068601526 325.9566114702974 670.5120345168853 325.9566114702974L670.5120345168853 325.9566114702974Q682.170904229947 325.9566114702974 693.0471183372708 329.8429013746513Q703.9503205689305 333.7291912790052 709.7797554254613 337.6154811833591L709.7797554254613 337.6154811833591L702.0071756167536 354.53703514190016Q682.9535598356849 344.605405386329 672.2662625987117 344.605405386329Q661.5789653617385 344.605405386329 655.1557917698201 349.7601371344651Q648.7596063022377 354.91486888260124 648.7596063022377 363.2811874266965L648.7596063022377 363.2811874266965Q648.7596063022377 372.5920903225444 657.0989367219971 378.2326083087247L657.0989367219971 378.2326083087247Q664.1158490493028 382.9015538188166 673.2378350748002 386.78784372317045Q682.3598211002976 390.6741336275244 686.1651466316441 392.42836170935084Q689.9434840386549 394.15560166684145 695.7729188951857 398.0418915711954Q701.6023537517167 401.9281814755493 704.7059880503326 405.8144713799032L704.7059880503326 405.8144713799032Q712.4785678590404 415.9350180058249 712.4785678590404 429.53703267106357L712.4785678590404 429.53703267106357Q712.4785678590404 449.1573990631837 698.6066719504438 459.54782693246324Q684.7077879175114 469.9382548017428 662.1727040971259 469.9382548017428Q639.6106321524045 469.9382548017428 622.7160663181993 458.68420695371793ZM741.6257421416948 425.4618258963591L741.6257421416948 425.4618258963591L741.6257421416948 327.7108395521238L763.7829922213793 327.7108395521238L763.7829922213793 421.9533697327063Q763.7829922213793 435.93321813864605 770.6919520513418 444.19158418539814Q777.5739237569685 452.4499502321502 791.9585940279452 452.4499502321502L791.9585940279452 452.4499502321502Q821.5105901756365 452.4499502321502 821.5105901756365 422.1422866030568L821.5105901756365 422.1422866030568L821.5105901756365 327.7108395521238L843.6408521309851 327.7108395521238L843.6408521309851 418.6608185637398Q843.6408521309851 442.1674748602138 830.2547424604327 456.06635889314623Q816.8416446655445 469.9382548017428 791.5807602872442 469.9382548017428Q766.3198759089437 469.9382548017428 753.9863030874872 458.00950384532314Q741.6257421416948 446.0537647645677 741.6257421416948 425.4618258963591ZM904.2831675135077 467.61727610886476L882.1259174338231 467.61727610886476L882.1259174338231 327.7108395521238L961.2011217376911 327.7108395521238L961.2011217376911 346.35963346815544L904.2831675135077 346.35963346815544L904.2831675135077 391.6457061036129L953.4285419289832 391.6457061036129L950.7297294954042 409.13401067320547L904.2831675135077 409.13401067320547L904.2831675135077 467.61727610886476ZM1014.0708573115058 467.61727610886476L991.9136072318213 467.61727610886476L991.9136072318213 327.7108395521238L1070.9888115356891 327.7108395521238L1070.9888115356891 346.35963346815544L1014.0708573115058 346.35963346815544L1014.0708573115058 391.6457061036129L1063.2162317269813 391.6457061036129L1060.5174192934023 409.13401067320547L1014.0708573115058 409.13401067320547L1014.0708573115058 467.61727610886476ZM1123.858547109504 467.61727610886476L1101.7012970298194 467.61727610886476L1101.7012970298194 327.7108395521238L1123.858547109504 327.7108395521238L1123.858547109504 467.61727610886476ZM1176.3234608182818 467.61727610886476L1151.2514933103319 467.61727610886476L1196.9153996864904 395.34307913761626L1153.9772938682468 328.8713288985628L1177.6728670350712 326.55035020568477L1212.838393044607 382.4967319537797L1246.4655959670029 326.55035020568477L1269.7833353931262 328.8713288985628L1226.0625739691448 398.0418915711954L1271.132741609916 467.61727610886476L1245.8718572316154 467.61727610886476L1210.3284974813787 411.0771556253825L1176.3234608182818 467.61727610886476ZM1305.1377782730126 319.938259743416L1305.1377782730126 319.938259743416Q1309.995640653455 319.938259743416 1313.3151799467573 322.96092966902455Q1316.607731115724 325.9566114702974 1316.607731115724 331.9749631971788L1316.607731115724 331.9749631971788Q1316.607731115724 344.605405386329 1303.410538315522 344.605405386329L1303.410538315522 344.605405386329Q1298.7415928054302 344.605405386329 1295.6379585068141 341.6097235850562Q1292.5073360838624 338.5870536594476 1292.5073360838624 332.75761880291674L1292.5073360838624 332.75761880291674Q1292.5073360838624 319.938259743416 1305.1377782730126 319.938259743416ZM1315.0694080285837 467.61727610886476L1294.0726472953384 467.61727610886476L1294.0726472953384 365.22433237887344L1315.0694080285837 362.4985318209585L1315.0694080285837 467.61727610886476ZM1432.4137726406034 370.27111162966634L1432.4137726406034 370.27111162966634L1432.4137726406034 442.9501304659517Q1432.4137726406034 449.7511377985711 1433.9790838520792 451.96416399410595Q1435.5443950635552 454.2041783139766 1441.5627467904367 454.2041783139766L1441.5627467904367 454.2041783139766L1442.3454023961747 466.45678676242574Q1437.487540015732 468.2110148442522 1432.0359388999025 468.2110148442522L1432.0359388999025 468.2110148442522Q1416.868613023188 468.2110148442522 1413.9538955949222 454.39309518432714L1413.9538955949222 454.39309518432714Q1403.671420222986 469.9382548017428 1383.5652675928216 469.9382548017428Q1363.4321268383214 469.9382548017428 1353.6354377044293 454.9868339197145Q1343.8117604462013 440.0354130376863 1343.8117604462013 416.4208042438691Q1343.8117604462013 392.80619545005186 1357.2248582410896 377.15308333529305Q1370.6379560359776 361.52695934487 1393.1730398563632 361.52695934487L1393.1730398563632 361.52695934487Q1402.2950258818605 361.52695934487 1414.4396818329667 364.3337242757923Q1426.5843377840724 367.16747733105035 1432.4137726406034 370.27111162966634ZM1365.9690105258858 418.06707982835235Q1365.9690105258858 436.9047906147345 1371.6904928850734 445.27110915882974Q1377.4389633685971 453.637427702925 1388.3151774759206 453.637427702925Q1399.1913915832445 453.637427702925 1405.3176958074691 445.94581226722454Q1411.4440000316938 438.2811849558599 1411.4440000316938 427.00014898349923L1411.4440000316938 427.00014898349923L1411.4440000316938 380.3646701312522Q1403.8603370933365 377.85477456802363 1394.1446123324515 377.85477456802363L1394.1446123324515 377.85477456802363Q1379.382108320774 377.85477456802363 1372.662065361162 388.5420718049969Q1365.9690105258858 399.2293690419702 1365.9690105258858 418.06707982835235Z " fill="#ffffff" transform="matrix(0.6066507873377857,0,0,0.6066507873377855,0,60.41040544515748)"/></g></svg>